# xmcd
#
# Track frame offsets:
#	150
#	14692
#	40237
#	51862
#	63512
#	91040
#	104462
#	119862
#	133467
#	163637
#	171525
#
# Disc length: 2393 seconds
#
# Revision: 1
# Processed by: cddbd v1.5.2PL0 Copyright (c) Steve Scherf et al.
# Submitted via: audiograbber 1.83.01
#
DISCID=a509570b
DTITLE=Vatche - Season's Greetings from Vatche
DYEAR=2008
DGENRE=Armenian
TTITLE0=Loor Kisher
TTITLE1=Dzap Zarg Ashkharh, Yerek Moker, Dznoontn Arachin
TTITLE2=Nor Darva Kisher
TTITLE3=Ice Inch Manoog E Skancheli
TTITLE4=Goch Maha Engerner, Lsetsek Gerken, Hreshdak, O Come All Ye Faithful, P
TTITLE4=ari Maghtankner
TTITLE5=Donadzar
TTITLE6=O Soorp Kisher
TTITLE7=Tsemer Babi
TTITLE8=Gaghant Baba, Aha Hassav, Zankagner, Gloria In Excelsis Deo
TTITLE9=Tsedessootune
TTITLE10=Happy Birthday
EXTD=
EXTT0=
EXTT1=
EXTT2=
EXTT3=
EXTT4=
EXTT5=
EXTT6=
EXTT7=
EXTT8=
EXTT9=
EXTT10=
PLAYORDER=
